<svg width="26" height="26" viewBox="0 0 24 24" fill="none" xmlns="http://www.w3.org/2000/svg">
<path d="M3 11C2.99993 10.7091 3.06333 10.4216 3.18579 10.1577C3.30824 9.8938 3.4868 9.65979 3.709 9.47199L10.709 3.47199C11.07 3.1669 11.5274 2.99951 12 2.99951C12.4726 2.99951 12.93 3.1669 13.291 3.47199L20.291 9.47199C20.5132 9.65979 20.6918 9.8938 20.8142 10.1577C20.9367 10.4216 21.0001 10.7091 21 11V20C21 20.5304 20.7893 21.0391 20.4142 21.4142C20.0391 21.7893 19.5304 22 19 22H5C4.46957 22 3.96086 21.7893 3.58579 21.4142C3.21071 21.0391 3 20.5304 3 20V11Z" stroke="white" stroke-width="1.5" stroke-linecap="round" stroke-linejoin="round"/>
</svg>
