<svg width="24" height="25" viewBox="0 0 24 25" fill="none" xmlns="http://www.w3.org/2000/svg">
<path d="M12.9197 0.77832C13.8843 0.989844 14.885 1.10093 15.8075 1.42971C20.2772 3.02284 22.9865 6.1707 23.8216 10.8288C24.8547 16.5913 21.2944 22.3457 15.6812 24.1077C15.0173 24.3162 14.5839 24.1745 14.372 23.6801C14.1563 23.1771 14.3961 22.6664 14.9732 22.4767C16.4232 21.9984 17.722 21.2722 18.8718 20.2631C23.3751 16.3113 23.2954 8.90939 18.6977 5.06757C14.1706 1.28329 7.64561 1.87019 4.04232 6.38546C4.00127 6.43699 3.96781 6.49438 3.88168 6.62182C4.20528 6.62182 4.46227 6.61442 4.71818 6.62336C5.25818 6.64219 5.63461 6.99179 5.67287 7.49954C5.71593 8.07116 5.42952 8.50162 4.86612 8.54944C3.69828 8.6485 2.5261 8.71221 1.35438 8.74754C0.834827 8.76297 0.445393 8.34224 0.43424 7.77155C0.410694 6.56813 0.414103 5.36194 0.43548 4.1576C0.444155 3.67438 0.843653 3.3112 1.3313 3.25705C1.78765 3.20613 2.24649 3.52488 2.35709 4.00038C2.40837 4.22147 2.40976 4.45552 2.41906 4.68433C2.42835 4.91313 2.42123 5.14255 2.42123 5.49493C2.70904 5.17896 2.92219 4.94167 3.13875 4.70808C5.20924 2.47004 7.759 1.18146 10.8024 0.868885C10.9048 0.858394 11.0038 0.810103 11.1033 0.7794L12.9197 0.77832Z" fill="white"/>
<path d="M0.000310116 11.945C0.0312915 11.8269 0.0698632 11.71 0.0932541 11.5901C0.19162 11.0941 0.53288 10.8249 1.03168 10.8548C1.5105 10.8836 1.82 11.2177 1.82651 11.7381C1.83332 12.287 1.82124 12.8361 1.82015 13.3852C1.81907 13.9673 1.56564 14.3175 1.08884 14.3888C0.592054 14.463 0.26303 14.2282 0.0797754 13.6726C0.0642848 13.625 0.0271087 13.5841 0 13.5401L0.000310116 11.945Z" fill="white"/>
<path d="M10.178 11.134C10.178 10.1774 10.1721 9.2224 10.1797 8.26661C10.1852 7.54981 10.5259 7.15361 11.1107 7.15577C11.6886 7.1587 12.0299 7.55537 12.0339 8.27849C12.0429 9.94229 12.0419 11.6061 12.0311 13.2699C12.0286 13.5948 12.1209 13.7627 12.4436 13.8954C13.5551 14.3523 14.6496 14.8508 15.7472 15.3411C16.3656 15.6175 16.5991 16.0982 16.3741 16.5962C16.1417 17.1106 15.6333 17.2806 15.0307 17.0201C13.6511 16.4236 12.2816 15.8037 10.8967 15.2196C10.379 15.0013 10.1752 14.6362 10.177 14.107C10.1806 13.1164 10.1781 12.1249 10.178 11.134Z" fill="white"/>
<path d="M4.9556 20.4358C4.99107 20.4358 5.03692 20.4213 5.06078 20.438C5.80015 20.9547 6.56477 21.4422 7.24992 22.0228C7.37462 22.1286 7.25549 22.6664 7.10183 22.9145C6.90819 23.2274 6.50234 23.3569 6.15829 23.1476C5.52504 22.7619 4.89084 22.3589 4.33798 21.872C4.15287 21.709 4.10392 21.2305 4.19485 20.9648C4.28284 20.7081 4.63107 20.5398 4.86513 20.3323L4.9556 20.4358Z" fill="white"/>
<path d="M11.3566 24.6963C10.8609 24.6346 10.2766 24.5803 9.6999 24.483C9.14131 24.3885 8.85426 23.9285 8.97106 23.3851C9.06896 22.9301 9.52331 22.659 10.0308 22.73C10.5217 22.7988 11.0146 22.8607 11.5089 22.8969C12.1369 22.9432 12.5149 23.288 12.4981 23.8394C12.4817 24.3839 12.0622 24.7258 11.3566 24.6963Z" fill="white"/>
<path d="M1.9529 16.1023C2.10177 16.232 2.4136 16.4109 2.59127 16.6785C2.90109 17.1442 3.13345 17.661 3.38687 18.1624C3.6183 18.6213 3.48431 19.1079 3.07412 19.36C2.67446 19.6056 2.17256 19.541 1.90813 19.1111C1.54178 18.5158 1.21105 17.8897 0.947713 17.2434C0.726351 16.7003 1.19371 16.1112 1.9529 16.1023Z" fill="white"/>
</svg>
