<svg width="26" height="26" viewBox="0 0 26 26" fill="none" xmlns="http://www.w3.org/2000/svg">
<path d="M0.00959232 12.4079C0.00959232 11.7088 0.297702 11.0407 0.806005 10.561L4.6528 6.93057C4.93252 6.66661 5.37149 6.67296 5.64347 6.94489C5.92678 7.22825 5.92013 7.68965 5.6287 7.96468L1.78191 11.595C1.55831 11.8061 1.43147 12.1001 1.43147 12.4079L1.42188 23.4613C1.42212 24.0786 1.92228 24.5781 2.53813 24.5781H8.32452V18.8906C8.32452 17.2644 9.64245 15.9453 11.2693 15.9453H14.7211C16.348 15.9453 17.6659 17.2644 17.6659 18.8906V24.5781H23.4523C24.0683 24.5781 24.5685 24.0784 24.5685 23.4609L24.5781 12.407C24.5779 12.0995 24.4511 11.8059 24.2277 11.595L13.7706 1.72625C13.3406 1.32042 12.669 1.32042 12.239 1.72625L7.8455 5.87255C7.5658 6.13656 7.12684 6.13021 6.85486 5.85823C6.5715 5.57487 6.5782 5.11352 6.86959 4.83848L11.2631 0.692164C12.241 -0.230721 13.7686 -0.230721 14.7465 0.692164L25.2036 10.561C25.7119 11.0407 26 11.7088 26 12.4079L25.9904 23.4609C25.9904 24.8632 24.8541 25.9999 23.4523 25.9999H16.244V18.8906C16.244 18.0492 15.5622 17.3671 14.7211 17.3671H11.2693C10.4282 17.3671 9.74639 18.0492 9.74639 18.8906V25.9999H2.53813C1.13636 25.9999 0 24.8632 0 23.4609L0.00959232 12.4079Z" fill="white"/>
</svg>
