<svg width="25" height="25" viewBox="0 0 25 25" fill="none" xmlns="http://www.w3.org/2000/svg">
<path d="M9.54199 8.28906C10.6807 7.43318 12.1284 7.0942 13.5303 7.35742L13.5371 7.3584C13.5715 7.36261 13.6081 7.37081 13.6445 7.38379V7.38477C13.8556 7.46288 13.9693 7.69189 13.9043 7.90625C13.8391 8.1206 13.6174 8.24806 13.3984 8.19629V8.19531L13.3848 8.19336H13.3838C12.02 7.93197 10.6138 8.35452 9.62207 9.3252C8.63056 10.2959 8.18038 11.6923 8.41895 13.0576C8.65859 14.4228 9.55631 15.5838 10.8203 16.1621C12.0832 16.7415 13.5515 16.6637 14.7461 15.9561C15.9417 15.2473 16.7112 13.9988 16.8047 12.6162C16.8981 11.2335 16.3037 9.89336 15.2158 9.03125C15.0326 8.88589 15.0016 8.61894 15.1465 8.43652C15.2925 8.25296 15.5599 8.22168 15.7441 8.36523C16.8522 9.23785 17.5429 10.5323 17.6523 11.9355C17.7618 13.3377 17.2781 14.7237 16.3184 15.7559C15.3597 16.7889 14.0111 17.3751 12.5986 17.374C11.2609 17.3749 9.98135 16.8493 9.03516 15.918L8.85059 15.7256L8.67578 15.5244C7.83193 14.4998 7.42454 13.1818 7.54785 11.8555C7.67945 10.4398 8.40335 9.14589 9.54199 8.28906Z" fill="white" stroke="white" stroke-width="0.2"/>
<mask id="path-2-inside-1_199_96" fill="white">
<path d="M12.5953 24.6431C12.0362 24.6431 11.4792 24.6057 10.9255 24.5308C10.4511 24.4645 10.0981 24.0602 10.0992 23.5832V22.0589C9.16872 21.8236 8.27799 21.4557 7.45272 20.9669L6.37096 22.0429H6.37203C6.0329 22.3798 5.49847 22.4173 5.11535 22.1328C4.22247 21.4567 3.42726 20.6631 2.75007 19.7732C2.4646 19.3913 2.50324 18.8576 2.84237 18.5217L3.92091 17.4457C3.43046 16.6242 3.0613 15.7364 2.8252 14.8091H1.29593C0.817289 14.8091 0.411619 14.4582 0.345106 13.9855C0.19486 12.8816 0.19486 11.7617 0.345106 10.6569C0.411643 10.1841 0.817316 9.83327 1.29593 9.83327H2.8252C3.0613 8.90592 3.43046 8.01813 3.92091 7.19559L2.8413 6.11848C2.50324 5.78048 2.46568 5.24674 2.75222 4.86597C3.43048 3.97818 4.22462 3.18667 5.11536 2.51065C5.4974 2.22506 6.03291 2.2625 6.37204 2.59943L7.45273 3.67547C8.278 3.18664 9.16873 2.81978 10.0992 2.58445V1.05918C10.0981 0.582127 10.4512 0.176733 10.9255 0.111508C12.0341 -0.0371694 13.1577 -0.0371694 14.2652 0.111508C14.7395 0.177825 15.0926 0.582154 15.0915 1.05918V2.99946C15.0926 3.13851 15.0368 3.27221 14.938 3.37063C14.8393 3.4701 14.7051 3.52465 14.5656 3.52465C14.4261 3.52465 14.292 3.4701 14.1932 3.37063C14.0945 3.27222 14.0398 3.13852 14.0398 2.99946V1.13938C13.0803 1.01745 12.1102 1.01745 11.1507 1.13938V2.69568C11.1485 3.11282 10.8641 3.47438 10.4585 3.5749C9.55812 3.79203 8.69741 4.14713 7.90648 4.62742C7.54911 4.84562 7.08764 4.79214 6.79038 4.49799L5.68502 3.39736H5.68395C4.91876 3.98671 4.23303 4.67127 3.6417 5.43285L4.74599 6.53455L4.74491 6.53562C5.0411 6.83189 5.09476 7.29183 4.87584 7.64802C4.39506 8.43419 4.03983 9.28989 3.82199 10.1852C3.72219 10.5916 3.35838 10.8793 2.93769 10.8815H1.37622C1.25388 11.8377 1.25388 12.8046 1.37622 13.761H2.93769C3.35728 13.7631 3.72218 14.0498 3.82089 14.4563C4.03982 15.3515 4.39503 16.2083 4.87581 16.9955C5.09581 17.3517 5.04108 17.8117 4.74488 18.1079L3.6406 19.2086V19.2075C4.23083 19.9723 4.91766 20.6568 5.68392 21.2451L6.79035 20.1445C7.08761 19.8503 7.54908 19.7958 7.90645 20.0151C8.69416 20.4943 9.5527 20.8483 10.4499 21.0654C10.8587 21.1638 11.1485 21.5275 11.1507 21.9468V23.5042V23.5031C12.1101 23.625 13.0802 23.625 14.0397 23.5031V21.9468C14.0419 21.5286 14.3295 21.166 14.7362 21.0665C15.6355 20.8494 16.4941 20.4943 17.2839 20.0151C17.6413 19.7969 18.1028 19.8504 18.4 20.1445L19.5065 21.2451C20.2717 20.6558 20.9574 19.9723 21.5487 19.2097L20.4444 18.1069C20.1493 17.8106 20.0957 17.3507 20.3146 16.9945C20.7943 16.2083 21.1506 15.3537 21.3684 14.4595C21.4672 14.052 21.831 13.7632 22.2516 13.761H23.8142C23.9365 12.8048 23.9365 11.8379 23.8142 10.8815H22.2516C21.832 10.8794 21.4682 10.5927 21.3695 10.1862C21.1506 9.29098 20.7954 8.43528 20.3146 7.64805C20.0946 7.29186 20.1493 6.83192 20.4455 6.53564L21.5498 5.43288H21.5487C20.9585 4.66916 20.2717 3.9846 19.5043 3.39632L18.1854 4.71089C18.0867 4.80929 17.9536 4.86491 17.8141 4.86491C17.6745 4.86491 17.5404 4.81036 17.4417 4.71196C17.3429 4.61355 17.2871 4.47985 17.2871 4.34079C17.2871 4.20174 17.3429 4.06804 17.4417 3.96962L18.8164 2.59944C19.1545 2.26357 19.6889 2.22401 20.072 2.50853C20.9649 3.18344 21.7612 3.97605 22.4384 4.86597C22.7249 5.24782 22.6873 5.78158 22.3493 6.11849L21.2697 7.19667V7.1956C21.7601 8.01814 22.1293 8.90592 22.3654 9.83328H23.8936C24.3733 9.83328 24.779 10.1841 24.8466 10.6569C24.9957 11.7607 24.9957 12.8806 24.8466 13.9855C24.779 14.4583 24.3733 14.8091 23.8936 14.8091H22.3654C22.1293 15.7364 21.7601 16.6242 21.2697 17.4457L22.3493 18.5239C22.6873 18.8619 22.7249 19.3956 22.4384 19.7764C21.7601 20.6642 20.966 21.4557 20.0752 22.1317C19.6932 22.4173 19.1577 22.3798 18.8185 22.0429L17.7379 20.9669C16.9126 21.4557 16.0218 21.8226 15.0925 22.059V23.5832C15.0925 24.0602 14.7394 24.4656 14.2651 24.5308C13.7113 24.6057 13.1534 24.6431 12.5953 24.6431Z"/>
</mask>
<path d="M12.5953 24.6431C12.0362 24.6431 11.4792 24.6057 10.9255 24.5308C10.4511 24.4645 10.0981 24.0602 10.0992 23.5832V22.0589C9.16872 21.8236 8.27799 21.4557 7.45272 20.9669L6.37096 22.0429H6.37203C6.0329 22.3798 5.49847 22.4173 5.11535 22.1328C4.22247 21.4567 3.42726 20.6631 2.75007 19.7732C2.4646 19.3913 2.50324 18.8576 2.84237 18.5217L3.92091 17.4457C3.43046 16.6242 3.0613 15.7364 2.8252 14.8091H1.29593C0.817289 14.8091 0.411619 14.4582 0.345106 13.9855C0.19486 12.8816 0.19486 11.7617 0.345106 10.6569C0.411643 10.1841 0.817316 9.83327 1.29593 9.83327H2.8252C3.0613 8.90592 3.43046 8.01813 3.92091 7.19559L2.8413 6.11848C2.50324 5.78048 2.46568 5.24674 2.75222 4.86597C3.43048 3.97818 4.22462 3.18667 5.11536 2.51065C5.4974 2.22506 6.03291 2.2625 6.37204 2.59943L7.45273 3.67547C8.278 3.18664 9.16873 2.81978 10.0992 2.58445V1.05918C10.0981 0.582127 10.4512 0.176733 10.9255 0.111508C12.0341 -0.0371694 13.1577 -0.0371694 14.2652 0.111508C14.7395 0.177825 15.0926 0.582154 15.0915 1.05918V2.99946C15.0926 3.13851 15.0368 3.27221 14.938 3.37063C14.8393 3.4701 14.7051 3.52465 14.5656 3.52465C14.4261 3.52465 14.292 3.4701 14.1932 3.37063C14.0945 3.27222 14.0398 3.13852 14.0398 2.99946V1.13938C13.0803 1.01745 12.1102 1.01745 11.1507 1.13938V2.69568C11.1485 3.11282 10.8641 3.47438 10.4585 3.5749C9.55812 3.79203 8.69741 4.14713 7.90648 4.62742C7.54911 4.84562 7.08764 4.79214 6.79038 4.49799L5.68502 3.39736H5.68395C4.91876 3.98671 4.23303 4.67127 3.6417 5.43285L4.74599 6.53455L4.74491 6.53562C5.0411 6.83189 5.09476 7.29183 4.87584 7.64802C4.39506 8.43419 4.03983 9.28989 3.82199 10.1852C3.72219 10.5916 3.35838 10.8793 2.93769 10.8815H1.37622C1.25388 11.8377 1.25388 12.8046 1.37622 13.761H2.93769C3.35728 13.7631 3.72218 14.0498 3.82089 14.4563C4.03982 15.3515 4.39503 16.2083 4.87581 16.9955C5.09581 17.3517 5.04108 17.8117 4.74488 18.1079L3.6406 19.2086V19.2075C4.23083 19.9723 4.91766 20.6568 5.68392 21.2451L6.79035 20.1445C7.08761 19.8503 7.54908 19.7958 7.90645 20.0151C8.69416 20.4943 9.5527 20.8483 10.4499 21.0654C10.8587 21.1638 11.1485 21.5275 11.1507 21.9468V23.5042V23.5031C12.1101 23.625 13.0802 23.625 14.0397 23.5031V21.9468C14.0419 21.5286 14.3295 21.166 14.7362 21.0665C15.6355 20.8494 16.4941 20.4943 17.2839 20.0151C17.6413 19.7969 18.1028 19.8504 18.4 20.1445L19.5065 21.2451C20.2717 20.6558 20.9574 19.9723 21.5487 19.2097L20.4444 18.1069C20.1493 17.8106 20.0957 17.3507 20.3146 16.9945C20.7943 16.2083 21.1506 15.3537 21.3684 14.4595C21.4672 14.052 21.831 13.7632 22.2516 13.761H23.8142C23.9365 12.8048 23.9365 11.8379 23.8142 10.8815H22.2516C21.832 10.8794 21.4682 10.5927 21.3695 10.1862C21.1506 9.29098 20.7954 8.43528 20.3146 7.64805C20.0946 7.29186 20.1493 6.83192 20.4455 6.53564L21.5498 5.43288H21.5487C20.9585 4.66916 20.2717 3.9846 19.5043 3.39632L18.1854 4.71089C18.0867 4.80929 17.9536 4.86491 17.8141 4.86491C17.6745 4.86491 17.5404 4.81036 17.4417 4.71196C17.3429 4.61355 17.2871 4.47985 17.2871 4.34079C17.2871 4.20174 17.3429 4.06804 17.4417 3.96962L18.8164 2.59944C19.1545 2.26357 19.6889 2.22401 20.072 2.50853C20.9649 3.18344 21.7612 3.97605 22.4384 4.86597C22.7249 5.24782 22.6873 5.78158 22.3493 6.11849L21.2697 7.19667V7.1956C21.7601 8.01814 22.1293 8.90592 22.3654 9.83328H23.8936C24.3733 9.83328 24.779 10.1841 24.8466 10.6569C24.9957 11.7607 24.9957 12.8806 24.8466 13.9855C24.779 14.4583 24.3733 14.8091 23.8936 14.8091H22.3654C22.1293 15.7364 21.7601 16.6242 21.2697 17.4457L22.3493 18.5239C22.6873 18.8619 22.7249 19.3956 22.4384 19.7764C21.7601 20.6642 20.966 21.4557 20.0752 22.1317C19.6932 22.4173 19.1577 22.3798 18.8185 22.0429L17.7379 20.9669C16.9126 21.4557 16.0218 21.8226 15.0925 22.059V23.5832C15.0925 24.0602 14.7394 24.4656 14.2651 24.5308C13.7113 24.6057 13.1534 24.6431 12.5953 24.6431Z" fill="white" stroke="white" stroke-width="0.4" mask="url(#path-2-inside-1_199_96)"/>
</svg>
